<?xml version="1.0" encoding="utf-8"?>
<!-- Generator: Adobe Illustrator 17.0.0, SVG Export Plug-In . SVG Version: 6.00 Build 0)  -->
<!DOCTYPE svg PUBLIC "-//W3C//DTD SVG 1.1//EN" "http://www.w3.org/Graphics/SVG/1.1/DTD/svg11.dtd">
<svg version="1.1" id="Layer_1" xmlns="http://www.w3.org/2000/svg" xmlns:xlink="http://www.w3.org/1999/xlink" x="0px" y="0px"
	 width="165.946px" height="184.331px" viewBox="0 0 165.946 184.331" enable-background="new 0 0 165.946 184.331"
	 xml:space="preserve">
<g>
	<path fill="#F7214F" d="M163.502,92.056l-41.776,41.777l-0.361,0.348l-21.938-22.463l-0.009-0.243l21.109-21.108
		c3.852-3.853,11.42-6.987,16.87-6.987l22.51,0.002c4.063,0,5.367,1.684,5.783,2.687C166.105,87.072,166.374,89.184,163.502,92.056z
		"/>
	<path fill="#2A64D8" d="M163.453,175.537l-41.884-41.886l-22.482,22.184l21.388,21.391c3.853,3.854,11.421,6.988,16.871,6.988
		l22.512-0.002c4.063,0,5.367-1.684,5.783-2.687C166.057,180.521,166.326,178.409,163.453,175.537z"/>
	<path fill="#FEC325" d="M2.406,112.914c1.227-2.737,2.825-5.257,4.576-7.008l21.219-21.216l22.322,22.295l-27.637,27.634"/>
	<path fill="#F7214F" d="M61.219,34.601"/>
	<path fill="#FEC325" d="M69.762,43.121l-7.932,7.932l-3.13,3.13l-8.32,8.323L72.664,84.82L84.18,73.256v0.007l2.065-2.034
		c1.754-1.754,3.364-4.28,4.596-7.024L69.762,43.121z"/>
	<rect x="23.498" y="134.006" fill="#F7214F" width="0.002" height="0"/>
	<line fill="#96989B" x1="77.11" y1="133.814" x2="77.11" y2="133.814"/>
	<path fill="#2A64D8" d="M50.38,62.483"/>
	<polygon fill="#4CAD44" points="77.135,133.814 77.123,133.814 77.129,133.821 77.135,133.814 	"/>
	<line fill="#2A64D8" x1="40.242" y1="33.633" x2="40.616" y2="33.259"/>
	<path fill="#4CAD44" d="M49.885,23.245L71.363,2.48c2.696,1.218,5.19,2.812,6.936,4.559l7.98,7.982
		c1.747,1.747,3.369,4.262,4.594,6.993c1.47,3.371,2.467,6.893,2.467,9.862v22.492c0,2.968-1.038,6.553-2.511,9.832L69.751,43.103
		L49.885,23.245z"/>
	<path fill="#2A64D8" d="M32.843,41.21c-0.827,0.827-0.998,2.725,0.419,4.142l17.118,17.13l22.319,22.308l0.008,0.007l26.703,26.69
		l0.969,0.973L80.618,132.51l-3.511,1.277l-26.706-26.702l-22.298-22.3L14.335,71.01c-1.738-1.738-3.355-4.286-4.575-6.996
		c-1.446-3.236-2.292-6.474-2.362-9.366V43.613l0.081-11.937c0-2.957,0.894-6.532,2.342-9.8c1.218-2.698,2.821-5.261,4.568-7.008
		l7.981-7.982c1.688-1.688,4.034-3.217,6.658-4.424l0.221-0.099l21.404,20.86L32.843,41.21z"/>
	<path fill="#2B8E21" d="M29.377,2.305c-0.098,0.044-0.195,0.091-0.293,0.136l21.173,21.179l21.127-21.13
		c-0.026-0.012-0.051-0.023-0.077-0.034l0,0C68.029,0.983,64.419,0,61.451,0H38.959C36.074,0,32.584,0.906,29.377,2.305z"/>
	<polygon fill="#513DE0" points="99.432,111.514 99.421,111.524 99.41,111.514 77.11,133.814 99.421,156.125 121.732,133.814 	"/>
	<g>
		<path fill="#F7214F" d="M23.314,133.822l25.208,25.228c1.073,0.565,2.373,0.544,3.428-0.067l25.179-25.161l22.298,22.304
			l-21.586,21.58c0,0-3.302,2.881-6.505,4.139c-3.44,1.253-7.513,2.486-9.496,2.486s-22.894,0-22.894,0
			c-2.98,0-6.595-0.969-9.889-2.451c-2.532-1.141-5.25-3.005-6.964-4.623L6.986,162.14c-1.755-1.757-3.395-4.3-4.584-7.046
			l-0.123-0.279"/>
	</g>
	<path fill="#D8073E" d="M2.406,112.914C0.935,116.196,0,119.79,0,122.757l0.001,22.531c0,2.959,0.937,6.53,2.402,9.806
		l21.096-21.088L2.406,112.914z"/>
</g>
</svg>
