<?xml version="1.0" encoding="utf-8"?>
<!-- Generator: Adobe Illustrator 17.0.0, SVG Export Plug-In . SVG Version: 6.00 Build 0)  -->
<!DOCTYPE svg PUBLIC "-//W3C//DTD SVG 1.1//EN" "http://www.w3.org/Graphics/SVG/1.1/DTD/svg11.dtd">
<svg version="1.1" id="Layer_1" xmlns="http://www.w3.org/2000/svg" xmlns:xlink="http://www.w3.org/1999/xlink" x="0px" y="0px"
	 width="32px" height="32px" viewBox="0 0 32 32" enable-background="new 0 0 32 32" xml:space="preserve">
<g>
	<path d="M30.49,28.089H1.509c-0.566,0-1.025-0.459-1.025-1.025V4.937c0-0.566,0.459-1.025,1.025-1.025H30.49
		c0.566,0,1.024,0.459,1.024,1.025v22.127C31.515,27.63,31.056,28.089,30.49,28.089z M2.535,26.038h26.931V5.962H2.535V26.038z"/>
	<path d="M16,17.939c-0.942,0-1.883-0.343-2.65-1.03L0.826,5.7c-0.422-0.378-0.458-1.025-0.08-1.447
		c0.377-0.424,1.024-0.459,1.447-0.08l12.524,11.208c0.755,0.676,1.811,0.676,2.568-0.001L29.806,4.173
		c0.422-0.378,1.07-0.343,1.448,0.08c0.378,0.422,0.342,1.07-0.08,1.448L18.652,16.909C17.883,17.596,16.942,17.939,16,17.939z"/>
</g>
</svg>
