<?xml version="1.0" encoding="utf-8"?>
<!-- Generator: Adobe Illustrator 15.1.0, SVG Export Plug-In . SVG Version: 6.00 Build 0)  -->
<!DOCTYPE svg PUBLIC "-//W3C//DTD SVG 1.1//EN" "http://www.w3.org/Graphics/SVG/1.1/DTD/svg11.dtd">
<svg version="1.1" id="Layer_1" xmlns="http://www.w3.org/2000/svg" xmlns:xlink="http://www.w3.org/1999/xlink" x="0px" y="0px"
	 width="50px" height="50px" viewBox="0 0 50 50" enable-background="new 0 0 50 50" xml:space="preserve">
<g>
	<path fill="none" d="M7.871,19.772L3.266,39.355l7.156,7.162l19.574-4.604c-0.409-1.421-1.66-5.206-4.333-9.279
		C22.631,28.016,17.097,22.088,7.871,19.772z"/>
	<path fill="none" d="M44.105,18.966l-15.76,15.761c1.497,2.778,2.332,5.156,2.727,6.455l17.365-17.367
		c0.144-0.142,0.144-0.374,0-0.516L44.105,18.966z"/>
	<path fill="none" d="M26.721,31.995c0.356,0.545,0.688,1.082,0.996,1.61l15.516-15.515L31.789,6.649L16.451,21.988
		C21.305,24.903,24.601,28.758,26.721,31.995z"/>
	<path fill="none" d="M30.916,5.775l-4.434-4.432c-0.14-0.138-0.377-0.139-0.517,0L8.623,18.687
		c2.497,0.665,4.726,1.586,6.714,2.667L30.916,5.775z"/>
	<path d="M49.312,22.425l-4.771-4.771l0,0c0,0,0,0-0.001,0l-6.206-6.207l0,0l-0.001-0.001l-6.107-6.107c0,0,0,0-0.002,0l0,0
		L27.357,0.47C27.055,0.167,26.652,0,26.225,0c-0.427,0-0.829,0.167-1.132,0.469L6.976,18.586c-0.005,0.005-0.007,0.011-0.012,0.016
		c-0.028,0.03-0.053,0.062-0.074,0.097c-0.007,0.012-0.015,0.023-0.021,0.035c-0.019,0.036-0.034,0.073-0.045,0.113
		c-0.003,0.009-0.007,0.017-0.009,0.027c0,0.002-0.002,0.004-0.002,0.007L0.037,47.686c-0.114,0.545,0.038,1.103,0.405,1.514
		c0.001,0.002,0.002,0.004,0.004,0.005c0.003,0.005,0.007,0.008,0.01,0.012c0.018,0.019,0.034,0.04,0.052,0.06
		c0.329,0.328,0.767,0.508,1.227,0.508c0.124,0,0.249-0.014,0.374-0.04L30.9,42.973c0.015-0.005,0.027-0.011,0.041-0.015
		c0.021-0.007,0.043-0.013,0.063-0.022c0.019-0.008,0.035-0.019,0.054-0.027c0.019-0.01,0.035-0.02,0.051-0.03
		c0.02-0.013,0.035-0.026,0.053-0.042c0.011-0.01,0.023-0.018,0.033-0.027l18.117-18.118C49.938,24.065,49.938,23.05,49.312,22.425z
		 M43.23,18.091L27.717,33.605c-0.31-0.528-0.639-1.065-0.996-1.61c-2.12-3.237-5.416-7.092-10.27-10.007L31.789,6.649L43.23,18.091
		z M25.967,1.343c0.139-0.139,0.377-0.138,0.516,0l4.435,4.432l-15.58,15.579c-1.989-1.081-4.217-2.002-6.714-2.667L25.967,1.343z
		 M10.422,46.518l-7.156-7.162l4.605-19.583c9.226,2.315,14.759,8.243,17.792,12.862c2.674,4.073,3.924,7.858,4.333,9.279
		L10.422,46.518z M48.438,23.815L31.072,41.182c-0.395-1.299-1.229-3.677-2.727-6.455l15.76-15.761l4.332,4.333
		C48.581,23.441,48.581,23.673,48.438,23.815z"/>
</g>
</svg>
