<?xml version="1.0" encoding="utf-8"?>
<!-- Generator: Adobe Illustrator 17.0.0, SVG Export Plug-In . SVG Version: 6.00 Build 0)  -->
<!DOCTYPE svg PUBLIC "-//W3C//DTD SVG 1.1//EN" "http://www.w3.org/Graphics/SVG/1.1/DTD/svg11.dtd">
<svg version="1.1" id="Layer_1" xmlns="http://www.w3.org/2000/svg" xmlns:xlink="http://www.w3.org/1999/xlink" x="0px" y="0px"
	 width="32px" height="32px" viewBox="-15.5 34.5 32 32" enable-background="new -15.5 34.5 32 32" xml:space="preserve">
<rect x="-3.569" y="36.51" fill="#FFFFFF" width="16.57" height="29.99"/>
<path fill="#3B5998" d="M14.734,34.5h-28.468c-0.976,0-1.766,0.791-1.766,1.766v28.468c0,0.975,0.791,1.766,1.766,1.766H1.593
	V54.108h-4.17v-4.83h4.17v-3.562c0-4.133,2.524-6.384,6.211-6.384c1.766,0,3.284,0.132,3.726,0.19v4.319l-2.558,0.001
	c-2.005,0-2.393,0.953-2.393,2.351v3.084h4.783l-0.623,4.83H6.58V66.5h8.154c0.975,0,1.766-0.791,1.766-1.766V36.266
	C16.5,35.29,15.709,34.5,14.734,34.5z"/>
</svg>
