<?xml version="1.0" encoding="utf-8"?>
<!-- Generator: Adobe Illustrator 17.1.0, SVG Export Plug-In . SVG Version: 6.00 Build 0)  -->
<!DOCTYPE svg PUBLIC "-//W3C//DTD SVG 1.1//EN" "http://www.w3.org/Graphics/SVG/1.1/DTD/svg11.dtd">
<svg version="1.1" id="Layer_1" xmlns="http://www.w3.org/2000/svg" xmlns:xlink="http://www.w3.org/1999/xlink" x="0px" y="0px"
	 viewBox="-1263.6 83.7 621 621" enable-background="new -1263.6 83.7 621 621" xml:space="preserve">
<g id="Rectangle_13_copy_2_1_" enable-background="new    ">
	<g id="Rectangle_13_copy_2">
		<g>
			<polygon fill="#FFFFFF" points="-1017.6,295.2 -1017.6,501.1 -832.3,398.2 			"/>
		</g>
	</g>
</g>
<g>
	<path fill="#FFFFFF" d="M-953.1,120.4c73.2,0,142,28.6,193.6,80.2c51.6,51.6,80.2,120.6,80.2,193.6s-28.6,142-80.2,193.6
		c-51.6,51.6-120.6,80.2-193.6,80.2s-142-28.6-193.6-80.2s-80.2-120.6-80.2-193.6s28.6-142,80.2-193.6S-1026.3,120.4-953.1,120.4
		 M-953.1,83.7c-171.6,0-310.5,139.1-310.5,310.5s139.1,310.5,310.5,310.5s310.5-138.9,310.5-310.5S-781.7,83.7-953.1,83.7
		L-953.1,83.7z"/>
</g>
</svg>
