<?xml version="1.0" encoding="utf-8"?>
<!-- Generator: Adobe Illustrator 17.0.0, SVG Export Plug-In . SVG Version: 6.00 Build 0)  -->
<!DOCTYPE svg PUBLIC "-//W3C//DTD SVG 1.1//EN" "http://www.w3.org/Graphics/SVG/1.1/DTD/svg11.dtd">
<svg version="1.1" id="Layer_1" xmlns="http://www.w3.org/2000/svg" xmlns:xlink="http://www.w3.org/1999/xlink" x="0px" y="0px"
	 width="32px" height="32px" viewBox="-15.5 34.5 32 32" enable-background="new -15.5 34.5 32 32" xml:space="preserve">
<path fill="#007BB6" d="M-14.013,34.5h29.025c0.822,0,1.487,0.666,1.487,1.487v29.025c0,0.822-0.666,1.487-1.487,1.487h-29.025
	c-0.822,0-1.487-0.666-1.487-1.487V35.987C-15.5,35.166-14.834,34.5-14.013,34.5z"/>
<rect x="-9.915" y="45.726" fill="#FFFFFF" width="4.658" height="16.304"/>
<path fill="#FFFFFF" d="M-7.586,43.397c-1.287,0-2.329-1.042-2.329-2.329c0-1.287,1.042-2.329,2.329-2.329s2.329,1.042,2.329,2.329
	C-5.256,42.354-6.299,43.397-7.586,43.397z"/>
<path fill="#FFFFFF" d="M11.048,62.03H6.39v-9.317c0-1.287-1.042-2.329-2.329-2.329s-2.329,1.042-2.329,2.329v9.317h-4.658V45.726
	h4.658v2.892c0.961-1.319,2.429-2.892,4.076-2.892c2.894,0,5.241,2.607,5.241,5.823L11.048,62.03L11.048,62.03z"/>
</svg>
