<?xml version="1.0" encoding="utf-8"?>
<!-- Generator: Adobe Illustrator 15.1.0, SVG Export Plug-In . SVG Version: 6.00 Build 0)  -->
<!DOCTYPE svg PUBLIC "-//W3C//DTD SVG 1.1//EN" "http://www.w3.org/Graphics/SVG/1.1/DTD/svg11.dtd">
<svg version="1.1" id="Layer_1" xmlns="http://www.w3.org/2000/svg" xmlns:xlink="http://www.w3.org/1999/xlink" x="0px" y="0px"
	 width="50px" height="50px" viewBox="0 0 50 50" enable-background="new 0 0 50 50" xml:space="preserve">
<g>
	<g>
		<g>
			<circle id="SVGID_1_" fill="none" cx="25.416" cy="25.416" r="24.406"/>
		</g>
		<g>
			<path id="SVGID_2_" d="M25.416,50.332C11.677,50.332,0.5,39.155,0.5,25.416C0.5,11.678,11.677,0.5,25.416,0.5
				c13.738,0,24.916,11.178,24.916,24.916S39.154,50.332,25.416,50.332z M25.416,1.519c-13.177,0-23.897,10.721-23.897,23.897
				S12.24,49.312,25.416,49.312s23.896-10.721,23.896-23.896C49.312,12.239,38.593,1.519,25.416,1.519z"/>
		</g>
	</g>
	<g>
		<path d="M28.654,50.117c-0.047,0-0.096-0.006-0.141-0.02c-0.14-0.039-0.255-0.136-0.318-0.267c-0.066-0.134-0.07-0.291-0.01-0.429
			c0.168-0.389,0.342-0.774,0.518-1.153c0.75-1.634-0.119-2.556-1.529-3.776c-0.607-0.527-1.184-1.023-1.468-1.625
			c-0.155-0.328-0.26-0.572-0.345-0.769c-0.261-0.606-0.261-0.606-1.298-1.371l-0.115-0.084c-0.603-0.442-1.231-0.998-1.329-1.744
			c-0.099-0.752,0.347-1.479,1.15-2.483c1.157-1.445,1.232-3.432,0.916-4.379c-0.107-0.324-0.374-0.444-0.964-0.686
			c-0.492-0.201-1.104-0.451-1.73-0.969c-0.998-0.826-1.408-1.314-1.707-1.67c-0.324-0.387-0.503-0.601-1.277-1.038
			c-1.046-0.593-1.799-0.729-2.596-0.876c-0.815-0.149-1.657-0.303-2.82-0.906c-1.482-0.769-1.917-1.479-2.376-2.229
			c-0.277-0.453-0.564-0.922-1.143-1.471c-1.357-1.286-1.647-2.871-1.956-4.549c-0.082-0.447-0.167-0.909-0.273-1.372
			c-0.436-1.886,0.537-3.19,1.478-4.45c0.282-0.379,0.574-0.771,0.838-1.186c0.797-1.252,0.434-2.029,0.05-2.852
			c-0.094-0.201-0.192-0.41-0.267-0.62c-0.053-0.146-0.133-0.337-0.24-0.57C9.604,6.362,9.665,6.111,9.846,5.965
			c3.942-3.159,8.684-5.025,13.713-5.396c0.215-0.014,0.417,0.106,0.504,0.305c0.223,0.508,0.37,0.961,0.438,1.348
			c0.075,0.451,0.418,2.729-0.138,3.748c-0.237,0.436-0.372,1.135-0.187,1.445c0.028,0.049,0.095,0.16,0.387,0.16
			c0.205,0,0.461-0.055,0.764-0.163c0.706-0.251,1.218-0.364,1.665-0.364c0.585,0,0.98,0.191,1.438,0.414
			c0.4,0.193,0.853,0.414,1.607,0.603c1.843,0.46,2.195,1.509,2.263,1.938c0.113,0.731-0.261,1.479-0.952,1.906
			c-0.35,0.214-0.539,0.573-0.761,0.989c-0.333,0.626-0.746,1.403-1.829,1.804c-1.406,0.518-2.24,2.242-2.691,3.598l-0.053,0.158
			c-0.387,1.159-0.719,2.161-1.721,2.161c-0.285,0-0.596-0.092-0.95-0.28c-0.298-0.16-0.622-0.23-1.048-0.23
			c-0.236,0-0.481,0.021-0.741,0.042c-0.28,0.024-0.57,0.049-0.873,0.049c-0.424,0-0.803-0.052-1.157-0.155
			c-0.391-0.115-0.896-0.184-1.352-0.184c-0.744,0-1.18,0.178-1.271,0.342c-0.065,0.119,0.009,0.366,0.197,0.662
			c1.27,1.996,1.6,2.296,2.259,2.893c0.383,0.346,0.858,0.777,1.646,1.632c0.32,0.18,1.537,0.906,3.477,2.567
			c1.277,1.093,2.813,1.104,4.941,1.117c1.361,0.01,2.904,0.021,4.738,0.309c3.077,0.486,5.067,2.44,6.668,4.01
			c0.93,0.912,1.731,1.7,2.478,1.922c1.693,0.502,3.293,0.976,3.295,3.078c0,0.096-0.026,0.189-0.078,0.271
			c-3.965,6.304-10.453,10.479-17.799,11.451C28.699,50.116,28.677,50.117,28.654,50.117z M10.79,6.519
			c0.043,0.104,0.08,0.2,0.111,0.284c0.059,0.165,0.142,0.344,0.23,0.533c0.415,0.888,0.983,2.105-0.114,3.828
			c-0.285,0.447-0.588,0.854-0.881,1.248c-0.911,1.221-1.63,2.186-1.301,3.612c0.112,0.485,0.199,0.959,0.283,1.418
			c0.289,1.575,0.538,2.935,1.654,3.991c0.677,0.643,1.014,1.193,1.312,1.68c0.417,0.682,0.746,1.219,1.976,1.856
			c1.028,0.534,1.76,0.667,2.535,0.811c0.845,0.154,1.719,0.312,2.915,0.99c0.934,0.529,1.195,0.84,1.555,1.271
			c0.289,0.344,0.649,0.771,1.576,1.54c0.506,0.419,1.016,0.627,1.465,0.811c0.632,0.258,1.286,0.524,1.546,1.307
			c0.361,1.086,0.388,3.496-1.086,5.339c-0.599,0.748-0.987,1.325-0.936,1.715c0.038,0.283,0.331,0.618,0.923,1.056l0.115,0.084
			c1.165,0.857,1.26,0.928,1.629,1.789c0.082,0.188,0.184,0.424,0.33,0.734c0.193,0.406,0.689,0.835,1.214,1.29
			c1.229,1.063,2.914,2.521,1.787,4.973c-0.043,0.097-0.088,0.193-0.132,0.289c6.622-1.137,12.438-5.002,16.083-10.717
			c-0.047-1.062-0.629-1.388-2.562-1.96c-0.99-0.294-1.877-1.163-2.902-2.171c-1.574-1.544-3.357-3.294-6.113-3.729
			c-1.76-0.277-3.262-0.287-4.587-0.297c-2.255-0.015-4.037-0.025-5.597-1.361c-2.129-1.823-3.357-2.478-3.369-2.482
			c-0.052-0.027-0.1-0.062-0.14-0.107c-0.789-0.862-1.257-1.287-1.634-1.626c-0.704-0.637-1.092-0.988-2.435-3.102
			c-0.516-0.811-0.41-1.371-0.23-1.698c0.395-0.72,1.395-0.871,2.164-0.871c0.556,0,1.153,0.082,1.64,0.226
			c0.263,0.077,0.54,0.113,0.87,0.113c0.26,0,0.516-0.021,0.787-0.045c0.269-0.022,0.546-0.047,0.827-0.047
			c0.595,0,1.08,0.111,1.528,0.351c0.25,0.134,0.394,0.161,0.471,0.161c0.267,0,0.502-0.711,0.752-1.464l0.053-0.159
			c0.522-1.566,1.521-3.574,3.307-4.231c0.719-0.265,0.979-0.757,1.28-1.325c0.254-0.479,0.543-1.021,1.127-1.38
			c0.343-0.21,0.529-0.558,0.48-0.882c-0.074-0.482-0.623-0.887-1.503-1.106c-0.858-0.214-1.384-0.47-1.806-0.674
			c-0.4-0.194-0.643-0.312-0.994-0.312c-0.319,0-0.739,0.097-1.321,0.305c-0.413,0.147-0.785,0.223-1.106,0.223
			c-0.563,0-1.012-0.234-1.264-0.658c-0.448-0.754-0.145-1.881,0.168-2.454c0.287-0.524,0.189-2.122,0.028-3.089
			c-0.039-0.217-0.117-0.482-0.23-0.777C18.71,2.02,14.411,3.71,10.79,6.519z"/>
	</g>
</g>
</svg>
