<?xml version="1.0" encoding="utf-8"?>
<!-- Generator: Adobe Illustrator 15.1.0, SVG Export Plug-In . SVG Version: 6.00 Build 0)  -->
<!DOCTYPE svg PUBLIC "-//W3C//DTD SVG 1.1//EN" "http://www.w3.org/Graphics/SVG/1.1/DTD/svg11.dtd">
<svg version="1.1" id="Layer_1" xmlns="http://www.w3.org/2000/svg" xmlns:xlink="http://www.w3.org/1999/xlink" x="0px" y="0px"
	 width="50px" height="50px" viewBox="0 0 50 50" enable-background="new 0 0 50 50" xml:space="preserve">
<g>
	<path fill="none" d="M32.422,37.795H19.133c0.368,1.518,0.585,3.188,0.585,5.096c0,4.985,3.252,6.026,6.005,6.026
		c5.289,0,6.094-3.729,6.094-5.94C31.793,41.068,32.031,39.378,32.422,37.795z"/>
	<path fill="none" d="M12.174,25.633c0.021,0.022,0.043,0.044,0.043,0.065c0.39,0.52,0.759,1.04,1.149,1.538
		c2.276,3.058,4.357,5.832,5.485,9.496h13.896c1.214-3.881,3.489-6.938,5.832-10.123c0.194-0.262,0.39-0.521,0.585-0.781
		c0.021-0.021,0.021-0.064,0.043-0.087c1.583-2.514,2.406-5.42,2.406-8.411c0-8.758-7.133-15.891-15.891-15.891
		c-8.759,0-15.891,7.132-15.891,15.891C9.811,20.235,10.613,23.118,12.174,25.633z M18.764,19.194l9.843-10.275
		c0.174-0.195,0.477-0.217,0.692-0.087c0.218,0.152,0.304,0.412,0.195,0.65l-2.386,5.789h4.771c0.218,0,0.411,0.129,0.498,0.325
		c0.087,0.196,0.044,0.434-0.106,0.585l-9.843,10.276c-0.108,0.107-0.238,0.174-0.391,0.174c-0.107,0-0.194-0.021-0.304-0.087
		c-0.216-0.151-0.303-0.413-0.194-0.649l2.384-5.79h-4.768c-0.218,0-0.413-0.13-0.5-0.324
		C18.569,19.585,18.612,19.367,18.764,19.194z"/>
	<path d="M25.701,0.312c-9.365,0-16.975,7.609-16.975,16.975c0,3.187,0.889,6.308,2.58,8.996c0.021,0.044,0.065,0.087,0.086,0.107
		c0.369,0.498,0.737,0.978,1.084,1.476c2.276,3.058,4.335,5.81,5.398,9.495c0,0.021,0.021,0.044,0.021,0.064
		c0.455,1.604,0.715,3.403,0.715,5.463c0,2.146,0.694,7.11,7.089,7.11c2.667,0,4.639-0.845,5.876-2.536
		c1.083-1.495,1.3-3.271,1.3-4.486c0-2.082,0.282-3.902,0.779-5.595v-0.021c1.129-3.815,3.34-6.829,5.769-10.146
		c0.216-0.304,0.435-0.605,0.673-0.91c0.041-0.044,0.063-0.109,0.063-0.152c1.647-2.667,2.493-5.722,2.493-8.865
		C42.676,7.921,35.066,0.312,25.701,0.312z M25.701,48.917c-2.731,0-6.005-1.041-6.005-6.026c0-1.908-0.216-3.578-0.585-5.096
		h13.311c-0.391,1.562-0.629,3.273-0.629,5.159C31.793,45.188,30.991,48.917,25.701,48.917z M25.701,1.396
		c8.759,0,15.891,7.132,15.891,15.891c0,2.991-0.822,5.896-2.404,8.411c-0.022,0.021-0.022,0.065-0.045,0.087
		c-0.194,0.26-0.391,0.52-0.586,0.779c-2.341,3.188-4.596,6.266-5.83,10.125H18.829c-1.127-3.664-3.187-6.438-5.485-9.496
		c-0.369-0.498-0.759-1.019-1.149-1.538c-0.021-0.022-0.021-0.044-0.043-0.065c-1.539-2.493-2.363-5.377-2.363-8.325
		C9.811,8.528,16.943,1.396,25.701,1.396z"/>
	<path fill="none" d="M25.202,19.281c0.109,0.151,0.131,0.347,0.044,0.499l-1.604,3.88l6.98-7.284h-4.313
		c-0.174,0-0.348-0.086-0.455-0.239c-0.107-0.152-0.131-0.346-0.043-0.499l1.604-3.88l-6.981,7.284h4.314
		C24.921,19.043,25.094,19.129,25.202,19.281z"/>
	<path d="M19.155,20.127h4.768l-2.384,5.788c-0.108,0.237-0.021,0.521,0.194,0.649c0.087,0.065,0.196,0.088,0.304,0.088
		c0.152,0,0.282-0.065,0.391-0.174l9.843-10.275c0.15-0.152,0.193-0.391,0.106-0.585c-0.087-0.195-0.28-0.326-0.498-0.326h-4.771
		l2.386-5.788c0.108-0.239,0.021-0.52-0.195-0.65c-0.217-0.152-0.498-0.108-0.692,0.087l-9.843,10.254
		c-0.151,0.151-0.195,0.391-0.108,0.586C18.742,19.997,18.937,20.127,19.155,20.127z M27.414,11.759l-1.604,3.88
		c-0.064,0.173-0.043,0.368,0.043,0.499c0.086,0.13,0.26,0.239,0.455,0.239h4.313l-6.98,7.284l1.604-3.88
		c0.065-0.174,0.043-0.369-0.044-0.499c-0.108-0.152-0.26-0.238-0.455-0.238h-4.314L27.414,11.759z"/>
</g>
</svg>
