<?xml version="1.0" encoding="utf-8"?>
<!-- Generator: Adobe Illustrator 17.0.0, SVG Export Plug-In . SVG Version: 6.00 Build 0)  -->
<!DOCTYPE svg PUBLIC "-//W3C//DTD SVG 1.1//EN" "http://www.w3.org/Graphics/SVG/1.1/DTD/svg11.dtd">
<svg version="1.1" id="Layer_1" xmlns="http://www.w3.org/2000/svg" xmlns:xlink="http://www.w3.org/1999/xlink" x="0px" y="0px"
	 width="32px" height="32px" viewBox="9 9 32 32" enable-background="new 9 9 32 32" xml:space="preserve">
<path fill="#62AADB" d="M10.487,9h29.025C40.334,9,41,9.666,41,10.487v29.025C41,40.334,40.334,41,39.513,41H10.487
	C9.666,41,9,40.334,9,39.513V10.487C9,9.666,9.666,9,10.487,9z"/>
<path fill="#FFFFFF" d="M34.363,19.358c-0.689,0.305-1.429,0.512-2.206,0.605c0.793-0.475,1.402-1.228,1.689-2.126
	c-0.742,0.44-1.564,0.76-2.439,0.932c-0.701-0.747-1.699-1.213-2.804-1.213c-2.122,0-3.842,1.72-3.842,3.842
	c0,0.301,0.034,0.594,0.1,0.876c-3.193-0.16-6.024-1.69-7.918-4.014c-0.331,0.567-0.52,1.227-0.52,1.931
	c0,1.333,0.678,2.509,1.709,3.198c-0.63-0.02-1.222-0.193-1.74-0.48c0,0.016,0,0.032,0,0.048c0,1.861,1.324,3.414,3.081,3.767
	c-0.322,0.088-0.662,0.135-1.012,0.135c-0.247,0-0.488-0.024-0.723-0.069c0.489,1.526,1.907,2.637,3.589,2.668
	c-1.315,1.03-2.971,1.645-4.771,1.645c-0.31,0-0.616-0.018-0.916-0.054c1.7,1.09,3.72,1.726,5.889,1.726
	c7.066,0,10.93-5.854,10.93-10.931c0-0.167-0.004-0.332-0.011-0.497C33.196,20.805,33.848,20.129,34.363,19.358z"/>
</svg>
