<?xml version="1.0" encoding="utf-8"?>
<!-- Generator: Adobe Illustrator 15.1.0, SVG Export Plug-In . SVG Version: 6.00 Build 0)  -->
<!DOCTYPE svg PUBLIC "-//W3C//DTD SVG 1.1//EN" "http://www.w3.org/Graphics/SVG/1.1/DTD/svg11.dtd">
<svg version="1.1" id="Layer_1" xmlns="http://www.w3.org/2000/svg" xmlns:xlink="http://www.w3.org/1999/xlink" x="0px" y="0px"
	 width="50px" height="50px" viewBox="0 0 50 50" enable-background="new 0 0 50 50" xml:space="preserve">
<g>
	<path fill="none" d="M47.648,27.68c1.16-2.01,1.16-4.505,0-6.512L39.021,6.236c-1.158-2.008-3.321-3.244-5.64-3.244H12.369
		L1.862,21.179c-1.159,2.008-1.159,4.497,0,6.506l8.627,14.929c1.16,2.008,3.32,3.239,5.639,3.239h17.255
		c2.319,0,4.48-1.234,5.641-3.244L47.648,27.68z M24.756,34.064c-5.318,0-9.643-4.325-9.643-9.643c0-5.317,4.325-9.643,9.643-9.643
		c5.314,0,9.643,4.326,9.643,9.643C34.398,29.739,30.07,34.064,24.756,34.064z"/>
	<path d="M48.508,20.671L39.88,5.74C38.545,3.425,36.055,2,33.383,2H12.082c-0.177,0-0.34,0.083-0.43,0.236L1.003,20.677
		c-1.337,2.314-1.337,5.188,0,7.5l8.626,14.931c1.337,2.314,3.826,3.737,6.499,3.737h17.255c2.672,0,5.162-1.426,6.497-3.739
		l8.628-14.938C49.844,25.854,49.844,22.985,48.508,20.671z M33.383,45.854H16.128c-2.318,0-4.479-1.234-5.639-3.244L1.862,27.672
		c-1.159-2.008-1.159-4.488,0-6.496L12.369,2.992h21.014c2.319,0,4.48,1.236,5.641,3.244l8.625,14.937c1.16,2.009,1.16,4.5,0,6.509
		l-8.625,14.928C37.863,44.618,35.7,45.854,33.383,45.854z"/>
	<path fill="none" d="M24.756,15.772c-4.771,0-8.651,3.881-8.651,8.65c0,4.77,3.88,8.651,8.651,8.651
		c4.77,0,8.648-3.882,8.648-8.651C33.404,19.653,29.523,15.772,24.756,15.772z"/>
	<path d="M24.756,14.78c-5.318,0-9.643,4.326-9.643,9.643c0,5.317,4.325,9.642,9.643,9.642c5.314,0,9.643-4.324,9.643-9.642
		C34.398,19.106,30.07,14.78,24.756,14.78z M24.756,33.073c-4.771,0-8.651-3.882-8.651-8.651c0-4.769,3.88-8.65,8.651-8.65
		c4.77,0,8.648,3.881,8.648,8.65C33.404,29.191,29.523,33.073,24.756,33.073z"/>
</g>
</svg>
